####
#
# OBJ File Generated by Meshlab
#
####
# Object simple_2tris.obj
#
# Vertices: 122
# Faces: 2
#
####
mtllib ./simple_2tris.obj.mtl

vn 0.000000 -1.570796 0.000000
v -21.847065 -2.492895 19.569759 0.752941 0.752941 0.752941
vn 0.000000 -1.570797 0.000000
v -15.847676 -2.492895 18.838863 0.752941 0.752941 0.752941
vn 0.000000 -1.570797 0.000000
v -21.585381 -2.492895 21.717730 0.752941 0.752941 0.752941
vn 0.000000 -1.570796 0.000000
v -15.585992 -2.492895 20.986834 0.752941 0.752941 0.752941
vn -1.748957 -1.570795 -1.369078
v -28.889317 -3.557970 -20.236633 0.752941 0.752941 0.752941
vn 1.369118 -1.570797 -1.748963
v 21.065487 -3.557970 -26.322546 0.752941 0.752941 0.752941
vn -1.749498 1.570796 -1.369527
v -28.889317 -2.370904 -20.236633 0.752941 0.752941 0.752941
vn 1.369488 1.570797 -1.749499
v 21.065487 -2.370904 -26.322546 0.752941 0.752941 0.752941
vn -1.368840 -1.570796 1.748759
v -22.640766 -3.557970 31.053141 0.752941 0.752941 0.752941
vn 1.748678 -1.570796 1.368933
v 27.314037 -3.557970 24.967228 0.752941 0.752941 0.752941
vn -1.369756 1.570796 1.749695
v -22.640766 -2.370904 31.053141 0.752941 0.752941 0.752941
vn 1.749734 1.570796 1.369659
v 27.314037 -2.370904 24.967228 0.752941 0.752941 0.752941
vn 1.369488 -4.712389 -1.748157
v -11.345862 -3.554139 -0.603272 0.752941 0.752941 0.752941
vn -1.749247 -4.712389 -1.368143
v -1.840215 -3.554139 -1.761330 0.752941 0.752941 0.752941
vn -1.369498 -4.712389 1.750121
v -2.998272 -3.554139 -11.266972 0.752941 0.752941 0.752941
vn 1.749893 -4.712388 1.370015
v -12.503919 -3.554139 -10.108913 0.752941 0.752941 0.752941
vn 1.368897 4.712389 -1.750106
v -11.345862 -2.367074 -0.603272 0.752941 0.752941 0.752941
vn -1.749215 4.712389 -1.370466
v -1.840215 -2.367074 -1.761330 0.752941 0.752941 0.752941
vn -1.369112 4.712389 1.748340
v -2.998272 -2.367074 -11.266972 0.752941 0.752941 0.752941
vn 1.748568 4.712389 1.368594
v -12.503919 -2.367074 -10.108913 0.752941 0.752941 0.752941
vn -1.367437 4.712389 1.748914
v 14.880527 -2.365568 6.393913 0.752941 0.752941 0.752941
vn -1.747889 4.712388 -1.368291
v 16.038584 -2.365752 15.899554 0.752941 0.752941 0.752941
vn 1.370886 4.712389 -1.748970
v 6.532944 -2.365750 17.057611 0.752941 0.752941 0.752941
vn 1.749825 4.712389 1.368317
v 5.374887 -2.364530 7.551970 0.752941 0.752941 0.752941
vn 1.368269 -4.712388 -1.748340
v 6.532944 -3.552818 17.057611 0.752941 0.752941 0.752941
vn -1.750900 -4.712389 -1.369635
v 16.038584 -3.552819 15.899554 0.752941 0.752941 0.752941
vn -1.371173 -4.712389 1.749548
v 14.880527 -3.552633 6.393913 0.752941 0.752941 0.752941
vn 1.748619 -4.712389 1.370337
v 5.374887 -3.551598 7.551970 0.752941 0.752941 0.752941
vn -1.748415 4.712387 -1.365431
v 1.032586 -2.363936 21.819389 0.752941 0.752941 0.752941
vn 1.368769 4.712387 -1.746332
v -8.473061 -2.364388 22.977446 0.752941 0.752941 0.752941
vn 1.747652 4.712388 1.369396
v -9.631113 -2.364505 13.471843 0.752941 0.752941 0.752941
vn 1.751306 -4.712389 1.369144
v -9.631113 -3.550801 13.471843 0.752941 0.752941 0.752941
vn 1.369974 -4.712388 -1.751833
v -8.473061 -3.551456 22.977446 0.752941 0.752941 0.752941
vn -1.749950 -4.712388 -1.372651
v 1.032586 -3.551004 21.819389 0.752941 0.752941 0.752941
vn -1.368043 4.712388 1.748509
v -0.125466 -2.361971 12.313786 0.752941 0.752941 0.752941
vn -1.370465 -4.712388 1.750016
v -0.125466 -3.549039 12.313786 0.752941 0.752941 0.752941
vn 0.000000 -1.570794 0.000000
v -14.690150 -2.438636 -3.546326 0.752941 0.752941 0.752941
vn 0.000000 -1.570798 0.000000
v -10.279407 -2.438636 0.585510 0.752941 0.752941 0.752941
vn 0.000000 -1.570798 0.000000
v -16.169479 -2.438636 -1.967133 0.752941 0.752941 0.752941
vn 0.000000 -1.570794 0.000000
v -11.758737 -2.438636 2.164704 0.752941 0.752941 0.752941
vn 0.000000 0.000000 0.000000
v -10.764113 1.642653 -7.737381 0.752941 0.752941 0.752941
vn 0.000000 0.000000 0.000000
v -8.122141 4.334330 -10.557693 0.752941 0.752941 0.752941
vn 0.000000 -1.570796 0.000000
v -3.133902 -2.799647 -1.494773 0.752941 0.752941 0.752941
vn 0.000000 -1.570796 0.000000
v 1.464393 -2.799647 -2.054976 0.752941 0.752941 0.752941
vn 0.000000 -1.570797 0.000000
v -2.673638 -2.799647 2.283187 0.752941 0.752941 0.752941
vn 0.000000 -1.570796 0.000000
v 1.924656 -2.799647 1.722984 0.752941 0.752941 0.752941
vn 0.000000 -1.570797 0.000000
v 7.996987 -2.799647 3.106367 0.752941 0.752941 0.752941
vn 0.000000 -1.570796 0.000000
v 10.805010 -2.799647 2.764270 0.752941 0.752941 0.752941
vn 0.000000 -1.570796 0.000000
v 8.308006 -2.799647 5.659298 0.752941 0.752941 0.752941
vn 0.000000 -1.570796 0.000000
v 11.116030 -2.799647 5.317201 0.752941 0.752941 0.752941
vn 0.000000 -1.570797 0.000000
v -10.347970 -2.799647 6.769098 0.752941 0.752941 0.752941
vn 0.000000 -1.570796 0.000000
v -7.539968 -2.799647 6.427003 0.752941 0.752941 0.752941
vn 0.000000 -1.570796 0.000000
v -10.036951 -2.799647 9.322028 0.752941 0.752941 0.752941
vn 0.000000 -1.570796 0.000000
v -7.228948 -2.799647 8.979934 0.752941 0.752941 0.752941
vn 0.000000 -1.570797 0.000000
v 7.004179 -2.799647 -5.042874 0.752941 0.752941 0.752941
vn 0.000000 -1.570796 0.000000
v 9.812201 -2.799647 -5.384971 0.752941 0.752941 0.752941
vn 0.000000 -1.570796 0.000000
v 7.315200 -2.799647 -2.489926 0.752941 0.752941 0.752941
vn 0.000000 -1.570796 0.000000
v 10.123222 -2.799647 -2.832022 0.752941 0.752941 0.752941
vn 0.000000 -1.570796 0.000000
v 5.762568 -2.799647 -15.234345 0.752941 0.752941 0.752941
vn 0.000000 -1.570796 0.000000
v 8.570591 -2.799647 -15.576443 0.752941 0.752941 0.752941
vn 0.000000 -1.570796 0.000000
v 6.073587 -2.799647 -12.681417 0.752941 0.752941 0.752941
vn 0.000000 -1.570796 0.000000
v 8.881610 -2.799647 -13.023514 0.752941 0.752941 0.752941
vn 0.000000 -1.570797 0.000000
v 14.876493 -2.799647 -3.645519 0.752941 0.752941 0.752941
vn 0.000000 -1.570797 0.000000
v 17.684513 -2.799647 -3.987616 0.752941 0.752941 0.752941
vn 0.000000 -1.570796 0.000000
v 15.187513 -2.799647 -1.092582 0.752941 0.752941 0.752941
vn 0.000000 -1.570796 0.000000
v 17.995535 -2.799647 -1.434679 0.752941 0.752941 0.752941
vn 0.000000 -1.570796 0.000000
v 12.915435 -2.799647 -13.547013 0.752941 0.752941 0.752941
vn 0.000000 -1.570797 0.000000
v 15.723457 -2.799647 -13.889110 0.752941 0.752941 0.752941
vn 0.000000 -1.570797 0.000000
v 13.226457 -2.799647 -10.994064 0.752941 0.752941 0.752941
vn 0.000000 -1.570796 0.000000
v 16.034479 -2.799647 -11.336161 0.752941 0.752941 0.752941
vn -1.749230 -1.570796 -1.369304
v -22.922894 -2.556200 -16.330383 0.752941 0.752941 0.752941
vn 1.369305 -1.570796 -1.749229
v -18.324535 -2.556200 -16.890593 0.752941 0.752941 0.752941
vn -1.749230 1.570796 -1.369304
v -22.922894 0.984404 -16.330383 0.752941 0.752941 0.752941
vn 1.369305 1.570796 -1.749230
v -18.324535 0.984404 -16.890593 0.752941 0.752941 0.752941
vn -1.369305 -1.570796 1.749231
v -22.462635 -2.556200 -12.552464 0.752941 0.752941 0.752941
vn 1.749231 -1.570797 1.369305
v -17.864281 -2.556200 -13.112674 0.752941 0.752941 0.752941
vn -1.369304 1.570796 1.749231
v -22.462635 0.984404 -12.552464 0.752941 0.752941 0.752941
vn 1.749231 1.570797 1.369306
v -17.864281 0.984404 -13.112674 0.752941 0.752941 0.752941
vn -0.524953 -1.570793 -2.158520
v -19.387363 -2.556200 -12.904255 0.752941 0.752941 0.752941
vn 2.158522 -1.570792 -0.524945
v -15.430549 -2.556200 -10.495531 0.752941 0.752941 0.752941
vn -0.524953 1.570793 -2.158520
v -19.387363 0.984404 -12.904255 0.752941 0.752941 0.752941
vn 2.158522 1.570792 -0.524945
v -15.430549 0.984404 -10.495531 0.752941 0.752941 0.752941
vn -2.158528 -1.570800 0.524955
v -21.366352 -2.556200 -9.653341 0.752941 0.752941 0.752941
vn 0.524948 -1.570801 2.158530
v -17.409561 -2.556200 -7.244633 0.752941 0.752941 0.752941
vn -2.158527 1.570799 0.524955
v -21.366352 0.984404 -9.653341 0.752941 0.752941 0.752941
vn 0.524947 1.570801 2.158530
v -17.409561 0.984404 -7.244633 0.752941 0.752941 0.752941
vn -2.049528 -1.570820 -0.856946
v -21.119835 0.947249 -14.128448 0.752941 0.752941 0.752941
vn 0.856925 -1.570771 -2.049478
v -16.834282 0.947249 -15.886953 0.752941 0.752941 0.752941
vn -2.049528 1.570820 -0.856946
v -21.119835 4.487851 -14.128448 0.752941 0.752941 0.752941
vn 0.856925 1.570771 -2.049478
v -16.834282 4.487851 -15.886953 0.752941 0.752941 0.752941
vn -0.856957 -1.570794 2.049492
v -19.675140 0.947249 -10.607425 0.752941 0.752941 0.752941
vn 2.049497 -1.570799 0.856960
v -15.389552 0.947249 -12.365835 0.752941 0.752941 0.752941
vn -0.856957 1.570794 2.049492
v -19.675140 4.487851 -10.607425 0.752941 0.752941 0.752941
vn 2.049497 1.570799 0.856960
v -15.389552 4.487851 -12.365835 0.752941 0.752941 0.752941
vn -1.749231 -1.570797 -1.369305
v 2.391826 -2.556200 -19.414434 0.752941 0.752941 0.752941
vn 1.369304 -1.570796 -1.749230
v 6.990122 -2.556200 -19.974638 0.752941 0.752941 0.752941
vn -1.749231 1.570797 -1.369305
v 2.391826 0.984404 -19.414434 0.752941 0.752941 0.752941
vn 1.369304 1.570796 -1.749230
v 6.990122 0.984404 -19.974638 0.752941 0.752941 0.752941
vn -1.369304 -1.570796 1.749230
v 2.852083 -2.556200 -15.636515 0.752941 0.752941 0.752941
vn 1.749231 -1.570797 1.369305
v 7.450379 -2.556200 -16.196718 0.752941 0.752941 0.752941
vn -1.369304 1.570796 1.749230
v 2.852083 0.984404 -15.636515 0.752941 0.752941 0.752941
vn 1.749231 1.570797 1.369305
v 7.450379 0.984404 -16.196718 0.752941 0.752941 0.752941
vn -1.749231 -1.570796 -1.369304
v 13.906441 -2.556200 -15.886549 0.752941 0.752941 0.752941
vn 1.369304 -1.570796 -1.749231
v 18.504681 -2.556200 -16.446747 0.752941 0.752941 0.752941
vn -1.749231 1.570796 -1.369304
v 13.906441 0.984404 -15.886549 0.752941 0.752941 0.752941
vn 1.369304 1.570796 -1.749231
v 18.504681 0.984404 -16.446747 0.752941 0.752941 0.752941
vn -1.369305 -1.570797 1.749231
v 14.366704 -2.556200 -12.108590 0.752941 0.752941 0.752941
vn 1.749231 -1.570796 1.369304
v 18.964945 -2.556200 -12.668786 0.752941 0.752941 0.752941
vn -1.369305 1.570797 1.749231
v 14.366704 0.984404 -12.108590 0.752941 0.752941 0.752941
vn 1.749231 1.570796 1.369304
v 18.964945 0.984404 -12.668786 0.752941 0.752941 0.752941
vn -2.203867 -1.570796 0.278877
v -6.385265 -2.556200 11.803425 0.752941 0.752941 0.752941
vn -0.278876 -1.570796 -2.203866
v -3.546856 -2.556200 8.142606 0.752941 0.752941 0.752941
vn -2.203867 1.570796 0.278877
v -6.385265 0.984404 11.803425 0.752941 0.752941 0.752941
vn -0.278876 1.570796 -2.203866
v -3.546856 0.984404 8.142606 0.752941 0.752941 0.752941
vn 0.278877 -1.570796 2.203867
v -3.377541 -2.556200 14.135456 0.752941 0.752941 0.752941
vn 2.203868 -1.570797 -0.278876
v -0.539135 -2.556200 10.474639 0.752941 0.752941 0.752941
vn 0.278877 1.570796 2.203867
v -3.377541 0.984404 14.135456 0.752941 0.752941 0.752941
vn 2.203868 1.570797 -0.278876
v -0.539135 0.984404 10.474639 0.752941 0.752941 0.752941
vn 0.000000 -1.570796 0.000000
v -4.999391 -2.723562 -20.058920 0.752941 0.752941 0.752941
vn 0.000000 -1.570796 0.000000
v -4.799391 -2.723562 -20.058920 0.752941 0.752941 0.752941
vn 0.000000 -1.570796 0.000000
v -4.999391 -2.723562 -19.858919 0.752941 0.752941 0.752941
vn 0.000000 -1.570796 0.000000
v -4.799391 -2.723562 -19.858919 0.752941 0.752941 0.752941
# 122 vertices, 0 vertices normals


usemtl material_0
vt 0.000000 0.000000
f 12/1/12 29/1/29 30/1/30
f 12/1/12 30/1/30 11/1/11
# 2 faces, 1 coords texture

# End of File